<svg width="44" height="44" viewBox="0 0 44 44" fill="none" xmlns="http://www.w3.org/2000/svg">
<circle cx="22" cy="22" r="21.5" fill="#198A96" stroke="#198A96"/>
<g clip-path="url(#clip0_136_685)">
<path d="M25.2851 14.666H18.7134C16.4817 14.666 14.666 16.4817 14.666 18.7135V25.2851C14.666 27.5169 16.4817 29.3326 18.7134 29.3326H25.2851C27.5169 29.3326 29.3326 27.5169 29.3326 25.2851V18.7135C29.3327 16.4817 27.5169 14.666 25.2851 14.666ZM28.0314 25.2851C28.0314 26.7994 26.7994 28.0313 25.2851 28.0313H18.7134C17.1992 28.0314 15.9673 26.7994 15.9673 25.2851V18.7135C15.9673 17.1993 17.1992 15.9673 18.7134 15.9673H25.2851C26.7993 15.9673 28.0313 17.1993 28.0313 18.7135L28.0314 25.2851Z" fill="white"/>
<path d="M21.9993 18.2205C19.9154 18.2205 18.22 19.9158 18.22 21.9997C18.22 24.0835 19.9154 25.7787 21.9993 25.7787C24.0831 25.7787 25.7785 24.0835 25.7785 21.9997C25.7785 19.9158 24.0831 18.2205 21.9993 18.2205ZM21.9993 24.4774C20.633 24.4774 19.5213 23.3659 19.5213 21.9996C19.5213 20.6333 20.6329 19.5217 21.9993 19.5217C23.3656 19.5217 24.4772 20.6333 24.4772 21.9996C24.4772 23.3659 23.3655 24.4774 21.9993 24.4774Z" fill="white"/>
<path d="M25.9371 17.1168C25.6863 17.1168 25.4401 17.2183 25.263 17.3961C25.0851 17.5731 24.9828 17.8195 24.9828 18.0711C24.9828 18.3219 25.0851 18.5681 25.263 18.746C25.44 18.923 25.6863 19.0253 25.9371 19.0253C26.1886 19.0253 26.4341 18.923 26.612 18.746C26.7898 18.5681 26.8913 18.3218 26.8913 18.0711C26.8913 17.8195 26.7898 17.5731 26.612 17.3961C26.435 17.2183 26.1886 17.1168 25.9371 17.1168Z" fill="white"/>
</g>
<defs>
<clipPath id="clip0_136_685">
<rect width="14.6667" height="14.6667" fill="white" transform="translate(14.666 14.666)"/>
</clipPath>
</defs>
</svg>
