<svg width="107" height="34" viewBox="0 0 107 34" fill="none" xmlns="http://www.w3.org/2000/svg">
<path d="M35.3408 7.74268H40.947L45.2035 19.2664H45.3073L49.3562 7.74268H54.6509L48.0066 24.7688H42.5043" fill="white"/>
<path d="M14.889 11.9994H9.6981V17.7093C9.6981 18.6437 9.80185 19.8894 10.7362 20.5123C11.6706 20.9276 12.7088 21.0315 13.7469 20.8238C14.1622 20.8238 14.5775 20.6162 14.889 20.4085V24.7689C14.266 24.9765 13.5393 25.0803 12.9164 25.1841C9.17896 25.5995 4.09192 24.8726 4.09192 20.2009V12.1031H0.354492V7.74281H3.98811V2.75957H9.6981V7.74281H14.889V11.9994ZM29.5272 7.74281H34.7181V24.7689H29.5272V7.74281ZM29.3195 3.27866C29.2158 1.82521 30.4616 0.475586 32.0188 0.475586C33.5761 0.475586 34.8219 1.61758 34.8219 3.17484V3.27866C34.8219 4.83592 33.4723 6.08173 32.0188 5.97791C30.5654 5.97791 29.3195 4.83592 29.3195 3.27866Z" fill="white"/>
<path d="M93.8944 16.2561C93.8944 18.5401 95.2438 20.5126 97.6316 20.5126C100.019 20.5126 101.369 18.5401 101.369 16.2561C101.369 13.9721 100.019 11.9996 97.6316 11.9996C95.2438 11.9996 93.8944 13.9721 93.8944 16.2561ZM89.2221 16.2561C89.0149 11.5843 92.6481 7.53542 97.3196 7.32779C100.123 7.22398 102.718 8.46978 104.484 10.65C106.559 13.6607 106.871 17.5019 105.21 20.8241C102.926 24.9768 97.7356 26.4302 93.5824 24.1463C90.7795 22.589 89.0149 19.5783 89.2221 16.2561ZM83.6163 7.74306V10.027H83.5123C83.4083 9.81944 83.2012 9.61178 82.9932 9.40412C79.5672 6.49725 73.8572 7.12016 71.6771 11.169C70.6389 13.3492 70.3275 15.8409 70.7427 18.2286C71.0542 20.4088 71.8847 22.6928 73.7534 23.9386C75.9336 25.2882 78.529 25.5997 80.9169 24.6653C81.7474 24.3538 82.4741 23.7309 83.0972 23.0042H83.2012V24.6653C83.3043 25.8073 82.8892 26.8455 82.1626 27.676C80.7092 29.2333 77.8023 29.1295 75.8297 28.6104C74.7916 28.2989 73.7534 27.8837 72.8191 27.2607L70.2236 30.9981C71.4694 31.9325 72.819 32.5554 74.2725 32.9707C78.01 33.9051 83.0972 33.9051 86.0041 30.9981C87.6647 29.3371 88.2878 26.8455 88.2878 23.6271V7.74306H83.6163ZM82.3703 19.4744C80.9169 21.0317 78.529 21.1355 76.9718 19.6821L76.7641 19.4744C75.4145 17.6057 75.4145 15.1141 76.7641 13.2454C78.2175 11.6881 80.6054 11.5843 82.1626 13.0377L82.3703 13.2454C83.7195 15.0103 83.7195 17.6057 82.3703 19.4744C82.9932 18.6439 81.6436 20.2012 82.3703 19.4744Z" fill="white"/>
<path d="M16.2383 7.74276H21.533V10.5458H21.6368C22.052 9.61146 22.7788 8.78092 23.6093 8.15803C25.0627 7.43131 26.7238 7.11985 28.2811 7.53512V12.3107C27.2429 11.9993 24.959 11.584 23.4017 12.5183C22.3635 13.1412 21.6368 13.868 21.6368 17.6054V24.665H16.3421L16.2383 7.74276Z" fill="white"/>
<path d="M59.5299 18.0206C58.4917 18.6435 57.7649 19.8894 58.6993 20.9275C59.6336 21.8619 61.2947 21.7581 62.4367 21.3428C63.7863 21.0313 64.7207 19.7856 64.7207 18.4359V17.3977C64.8246 17.3977 60.8795 17.1901 59.5299 18.0206ZM64.8246 22.6924C64.2016 23.523 63.371 24.2497 62.4367 24.6649C58.6993 26.2222 53.4046 24.6649 53.3008 19.9932C53.3008 15.1137 58.5955 14.1794 62.4367 14.0756H64.8246C64.8246 13.2451 64.5131 12.4145 63.7863 11.8954C63.1233 11.3925 62.3275 11.095 61.4972 11.0397C60.6668 10.9843 59.8385 11.1735 59.1145 11.584C58.3878 11.9992 57.7649 12.4145 57.2459 13.0374L54.339 10.1305C55.2733 9.19616 56.5191 8.57326 57.7649 8.05418C60.1527 7.22364 62.6443 7.11982 65.0321 7.74272C67.2123 8.36563 68.7696 10.1305 69.1849 12.3107C69.3925 13.5565 69.4963 14.8023 69.4963 16.0481V24.6649H64.7207L64.8246 22.6924Z" fill="white"/>
</svg>
