<svg width="186" height="37" viewBox="0 0 186 37" fill="none" xmlns="http://www.w3.org/2000/svg">
<path fill-rule="evenodd" clip-rule="evenodd" d="M88.7471 8.90041V26.3818H93.5291V13.2923L102.482 26.3818H109.783V8.90041H105.003V21.3016L96.4839 8.90041H88.7471ZM121.604 8.90041V26.3818H126.385V13.2923L135.339 26.3818H142.64V8.90041H137.859V21.3016L129.34 8.90041H121.604ZM117.954 26.3818V8.90041H113.173V26.3818H117.954ZM54.0654 8.18506C62.2359 8.18506 65.2521 12.4383 65.2521 17.6851C65.2521 22.9302 62.2359 27.1842 54.0654 27.1842C45.8949 27.1842 42.8795 22.9302 42.8795 17.6851C42.8787 12.4383 45.894 8.18506 54.0654 8.18506ZM54.0654 11.1082C50.0668 11.1082 48.6355 14.0525 48.6355 17.6851C48.6355 21.3168 50.0668 24.2611 54.0654 24.2611C58.064 24.2611 59.4953 21.3168 59.4953 17.6851C59.4953 14.0525 58.064 11.1082 54.0654 11.1082ZM34.6595 19.5757C34.1909 22.2858 32.5915 24.2611 29.2184 24.2611C25.1004 24.2611 23.6255 21.3168 23.6255 17.6851C23.6255 14.0525 25.1004 11.1082 29.2184 11.1082C32.4105 11.1082 34.0143 12.8771 34.5742 15.364L40.5145 15.358C39.6652 11.2359 36.3469 8.1859 29.2184 8.1859C20.803 8.1859 17.6963 12.4391 17.6963 17.6859C17.6963 22.931 20.803 27.1851 29.2184 27.1851C36.5824 27.1851 39.8812 23.9279 40.5913 19.5995L34.6595 19.5757ZM156.648 24.2611C152.529 24.2611 151.055 21.3168 151.055 17.6851C151.055 14.0525 152.529 11.1082 156.648 11.1082C159.408 11.1082 160.98 12.4307 161.719 14.3975L167.696 14.4051C166.548 10.775 163.214 8.1859 156.648 8.1859C148.232 8.1859 145.126 12.4391 145.126 17.6859C145.126 22.931 148.232 27.1851 156.648 27.1851C160.025 27.1572 164.111 26.1247 167.586 23.3681V16.9097H157.069V20.1829H162.024V22.6799C160.98 23.3681 159.616 24.207 156.648 24.2611ZM73.0148 19.5791H78.6647C79.0991 19.5791 79.6207 19.9225 79.7948 20.5253L80.5777 25.521C80.5777 25.7789 80.8385 26.3818 81.3602 26.3818H86.5761C86.4016 26.0385 85.9672 25.0906 85.8809 24.4877L85.1857 20.3537C84.9253 18.9763 83.7953 17.6851 82.4039 17.5117C84.3165 16.7372 85.8809 15.101 85.8809 13.1207C85.8809 11.1395 83.9684 8.90041 80.6654 8.90041H67.6249V26.3818H73.0139L73.0148 19.5791ZM73.0148 12.0831H78.0563C78.6105 12.0831 79.1422 12.3013 79.5339 12.6895C79.9261 13.0778 80.1462 13.6044 80.1462 14.1535C80.1462 14.7026 79.9261 15.2293 79.5339 15.6175C79.1422 16.0058 78.6105 16.2239 78.0563 16.2239L73.0148 16.2205V12.0831Z" fill="white"/>
</svg>
