<svg width="129" height="28" viewBox="0 0 129 28" fill="none" xmlns="http://www.w3.org/2000/svg">
<path d="M125.175 9.54122C125.175 8.71367 125.846 8.02881 126.688 8.02881C127.53 8.02881 128.2 8.71367 128.2 9.54122C128.2 10.383 127.53 11.0536 126.688 11.0536C125.846 11.0536 125.175 10.3688 125.175 9.54122ZM125.461 9.54122C125.461 10.2261 126.003 10.7825 126.688 10.7825C127.359 10.7825 127.915 10.2261 127.915 9.54122C127.915 8.85636 127.359 8.2999 126.688 8.2999C126.003 8.2999 125.461 8.85636 125.461 9.54122ZM126.46 10.3973H126.103V8.67087H126.788C127.13 8.67087 127.402 8.84207 127.402 9.21304C127.402 9.4699 127.259 9.62681 127.073 9.71241L127.43 10.3973H127.045L126.731 9.7695H126.46V10.3973ZM126.76 9.01333H126.46V9.44133H126.76C126.888 9.44133 127.03 9.3843 127.03 9.22733C127.03 9.05613 126.888 9.01333 126.76 9.01333Z" fill="white"/>
<path fill-rule="evenodd" clip-rule="evenodd" d="M54.3736 21.4549L48.2095 12.1951V21.4549H45.4556V8.02881H48.6375L54.4592 16.7893V8.02881H57.213V21.4549H54.3736ZM63.5056 12.0952C60.7232 12.0952 58.483 14.164 58.483 16.9035C58.483 19.6714 60.6947 21.6689 63.4771 21.6689C66.2449 21.6689 68.4856 19.6143 68.4856 16.8464C68.4712 14.1069 66.2594 12.0952 63.5056 12.0952ZM63.4771 19.2006C62.2214 19.2006 61.2084 18.2446 61.2084 16.8464C61.2084 15.4767 62.2072 14.5207 63.4485 14.5207C64.7041 14.5207 65.7175 15.4767 65.7175 16.8464C65.7313 18.2446 64.7325 19.2006 63.4771 19.2006ZM75.406 12.2949V14.9202C75.0491 14.8489 74.6639 14.8489 74.5494 14.8489C73.2654 14.8489 72.3666 15.7478 72.3666 17.4456V21.4549H69.7413V12.2949H72.281V13.6361H72.3093C72.809 12.5945 73.7362 12.1951 74.6784 12.1951C74.8924 12.1951 75.2203 12.2379 75.406 12.2949ZM83.0684 8.02881V13.3508H83.0395C82.0979 12.2379 80.8277 12.138 80.3003 12.138C77.6744 12.138 75.9051 14.5492 75.9051 16.8749C75.9051 19.3433 77.6033 21.6404 80.2575 21.6404C80.8705 21.6404 82.2407 21.5548 83.1112 20.2992H83.1395V21.4692H85.7365V8.02881H83.0684ZM80.8705 19.2006C79.6148 19.2006 78.6021 18.2446 78.6021 16.8464C78.6021 15.4767 79.6148 14.535 80.8705 14.535C82.1262 14.535 83.1395 15.4767 83.1395 16.8464C83.1251 18.2446 82.1262 19.2006 80.8705 19.2006ZM91.4156 21.4549L86.5497 8.02881H89.5601L93.042 18.2304L96.5378 8.02881H99.4916L94.6118 21.4549H91.4156ZM105.627 8.02881H100.633V21.4549H103.415V16.718H105.513C108.324 16.718 110.421 15.2912 110.421 12.3235C110.421 9.48413 108.31 8.02881 105.627 8.02881ZM105.399 14.1355H103.415V10.6541H105.385C106.54 10.6541 107.625 11.0964 107.625 12.4091C107.625 13.6504 106.498 14.1355 105.399 14.1355ZM120.738 21.4549L114.56 12.1951V21.4549H111.82V8.02881H115.001L120.824 16.7893V8.02881H123.577V21.4549H120.738Z" fill="white"/>
<path fill-rule="evenodd" clip-rule="evenodd" d="M3.94757 27.8325C1.86432 24.9647 0.637207 21.4263 0.637207 17.5882C0.637207 7.95738 8.42797 0.152832 18.0451 0.152832C27.6623 0.152832 35.4531 7.95738 35.4531 17.6025C35.4531 21.4263 34.226 24.9647 32.1427 27.8468L23.7812 14.2352L22.9679 15.6049L23.7812 19.4002L18.0309 9.55538L14.4922 15.5621L15.3198 19.4002L12.3091 14.2495L3.94757 27.8325Z" fill="white"/>
</svg>
