<svg width="115" height="40" viewBox="0 0 115 40" fill="none" xmlns="http://www.w3.org/2000/svg">
<path fill-rule="evenodd" clip-rule="evenodd" d="M22.6532 36.3556L10.6341 20L22.6532 3.62222L25.3171 -6.41811e-07L40 20L25.3171 40L22.6532 36.3556ZM17.3259 3.6L5.30684 19.9778L17.3468 36.3778L14.6829 40L6.75517e-06 20L14.6829 -1.10664e-06L17.3259 3.6Z" fill="#198A96"/>
<path d="M60.2 30.288C58.92 30.288 57.736 30.056 56.648 29.592C55.56 29.128 54.608 28.48 53.792 27.648C52.976 26.816 52.336 25.84 51.872 24.72C51.424 23.6 51.2 22.376 51.2 21.048C51.2 19.72 51.416 18.496 51.848 17.376C52.296 16.24 52.92 15.264 53.72 14.448C54.536 13.616 55.488 12.976 56.576 12.528C57.664 12.064 58.848 11.832 60.128 11.832C61.408 11.832 62.552 12.048 63.56 12.48C64.584 12.912 65.448 13.488 66.152 14.208C66.856 14.912 67.36 15.688 67.664 16.536L64.76 17.928C64.424 17 63.856 16.248 63.056 15.672C62.256 15.096 61.28 14.808 60.128 14.808C59.008 14.808 58.016 15.072 57.152 15.6C56.304 16.128 55.64 16.856 55.16 17.784C54.696 18.712 54.464 19.8 54.464 21.048C54.464 22.296 54.704 23.392 55.184 24.336C55.68 25.264 56.36 25.992 57.224 26.52C58.088 27.048 59.08 27.312 60.2 27.312C61.112 27.312 61.952 27.136 62.72 26.784C63.488 26.416 64.104 25.904 64.568 25.248C65.032 24.576 65.264 23.784 65.264 22.872V21.504L66.752 22.8H60.128V20.04H68.528V21.84C68.528 23.216 68.296 24.432 67.832 25.488C67.368 26.544 66.736 27.432 65.936 28.152C65.152 28.856 64.264 29.392 63.272 29.76C62.28 30.112 61.256 30.288 60.2 30.288ZM70.8468 30V16.944H73.7988V19.848L73.5588 19.416C73.8628 18.44 74.3348 17.76 74.9748 17.376C75.6308 16.992 76.4148 16.8 77.3268 16.8H78.0948V19.584H76.9668C76.0708 19.584 75.3508 19.864 74.8068 20.424C74.2628 20.968 73.9908 21.736 73.9908 22.728V30H70.8468ZM83.7834 30.288C82.8714 30.288 82.0794 30.136 81.4074 29.832C80.7354 29.528 80.2154 29.096 79.8474 28.536C79.4794 27.96 79.2954 27.296 79.2954 26.544C79.2954 25.824 79.4554 25.184 79.7754 24.624C80.0954 24.048 80.5914 23.568 81.2634 23.184C81.9354 22.8 82.7834 22.528 83.8074 22.368L88.0794 21.672V24.072L84.4074 24.696C83.7834 24.808 83.3194 25.008 83.0154 25.296C82.7114 25.584 82.5594 25.96 82.5594 26.424C82.5594 26.872 82.7274 27.232 83.0634 27.504C83.4154 27.76 83.8474 27.888 84.3594 27.888C85.0154 27.888 85.5914 27.752 86.0874 27.48C86.5994 27.192 86.9914 26.8 87.2634 26.304C87.5514 25.808 87.6954 25.264 87.6954 24.672V21.312C87.6954 20.752 87.4714 20.288 87.0234 19.92C86.5914 19.536 86.0154 19.344 85.2954 19.344C84.6234 19.344 84.0234 19.528 83.4954 19.896C82.9834 20.248 82.6074 20.72 82.3674 21.312L79.7994 20.064C80.0554 19.376 80.4554 18.784 80.9994 18.288C81.5594 17.776 82.2154 17.376 82.9674 17.088C83.7194 16.8 84.5354 16.656 85.4154 16.656C86.4874 16.656 87.4314 16.856 88.2474 17.256C89.0634 17.64 89.6954 18.184 90.1434 18.888C90.6074 19.576 90.8394 20.384 90.8394 21.312V30H87.8634V27.768L88.5354 27.72C88.1994 28.28 87.7994 28.752 87.3354 29.136C86.8714 29.504 86.3434 29.792 85.7514 30C85.1594 30.192 84.5034 30.288 83.7834 30.288ZM93.7453 30V16.944H96.8893V30H93.7453ZM93.7453 15.48V12.12H96.8893V15.48H93.7453ZM105.864 30.288C104.6 30.288 103.472 29.992 102.48 29.4C101.488 28.792 100.704 27.968 100.128 26.928C99.5521 25.888 99.2641 24.736 99.2641 23.472C99.2641 22.192 99.5521 21.04 100.128 20.016C100.704 18.992 101.488 18.176 102.48 17.568C103.488 16.96 104.608 16.656 105.84 16.656C106.832 16.656 107.712 16.856 108.48 17.256C109.264 17.64 109.88 18.184 110.328 18.888L109.848 19.536V11.832H112.992V30H110.016V27.48L110.352 28.104C109.904 28.808 109.28 29.352 108.48 29.736C107.68 30.104 106.808 30.288 105.864 30.288ZM106.2 27.408C106.92 27.408 107.552 27.24 108.096 26.904C108.64 26.568 109.064 26.104 109.368 25.512C109.688 24.92 109.848 24.24 109.848 23.472C109.848 22.72 109.688 22.048 109.368 21.456C109.064 20.848 108.64 20.376 108.096 20.04C107.552 19.704 106.92 19.536 106.2 19.536C105.496 19.536 104.864 19.712 104.304 20.064C103.744 20.4 103.304 20.864 102.984 21.456C102.68 22.032 102.528 22.704 102.528 23.472C102.528 24.24 102.68 24.92 102.984 25.512C103.304 26.104 103.744 26.568 104.304 26.904C104.864 27.24 105.496 27.408 106.2 27.408Z" fill="#01112D"/>
</svg>
