<svg width="205" height="37" viewBox="0 0 205 37" fill="none" xmlns="http://www.w3.org/2000/svg">
<g clip-path="url(#clip0_121_174)">
<path d="M-0.012207 0.185059L17.7399 8.88359V26.6357L-0.012207 17.9372V0.185059ZM35.6696 0.185059L53.2441 8.88359L35.6696 17.9372V0.185059Z" fill="white"/>
<path d="M35.6694 0.185059L17.7397 8.88359V26.6357L35.6694 17.9372V0.185059ZM53.244 8.88359L35.6694 17.9372V35.6893L53.244 26.6357V8.88359Z" fill="white"/>
<path d="M79.9646 1.74777C84.9286 1.74777 87.7303 4.65601 87.7303 8.6121C87.7617 9.79585 87.4213 10.9597 86.7571 11.9401C86.0929 12.9204 85.1383 13.668 84.0272 14.0778C86.5093 14.6905 88.5206 16.955 88.5206 20.1207C88.5206 24.2544 85.4125 27.2248 80.6484 27.2248H70.7959V1.74777H79.9646ZM79.232 12.2796C81.4965 12.2796 82.864 11.0231 82.864 9.08275C82.864 7.14244 81.5808 5.92586 79.1743 5.92586H75.6799V12.2885L79.232 12.2796ZM79.7337 23.1044C82.1447 23.1044 83.5833 21.8434 83.5833 19.7966C83.5833 17.7497 82.2867 16.3777 79.8092 16.3777H75.6799V23.1044H79.7337ZM102.258 25.3334C101.285 26.985 99.2343 27.7043 97.374 27.7043C93.0981 27.7043 90.6519 24.5963 90.6519 20.7291V9.54898H95.4246V19.7611C95.4246 21.7369 96.4326 23.3131 98.6619 23.3131C100.784 23.3131 102.005 21.8746 102.005 19.8277V9.54898H106.787V24.0368C106.788 25.1064 106.847 26.175 106.964 27.2381H102.4C102.303 26.6079 102.256 25.971 102.258 25.3334ZM113.008 0.775391C113.589 0.775433 114.158 0.947488 114.641 1.26989C115.126 1.59231 115.504 2.05067 115.728 2.58731C115.952 3.12397 116.012 3.71491 115.901 4.28582C115.791 4.85673 115.513 5.38207 115.105 5.79576C114.695 6.20945 114.173 6.49301 113.605 6.61075C113.035 6.72848 112.443 6.67514 111.904 6.45743C111.364 6.23973 110.902 5.86739 110.573 5.38726C110.245 4.90713 110.067 4.34065 110.059 3.75911C110.055 3.36897 110.127 2.98177 110.274 2.61997C110.419 2.25817 110.636 1.92896 110.91 1.65142C111.184 1.37389 111.511 1.15353 111.871 1.00316C112.231 0.852782 112.617 0.775362 113.008 0.775391ZM110.632 27.2381V9.54898H115.414V27.2381H110.632ZM119.264 27.2381V1.20607H124.045V27.2381H119.264ZM144.421 24.0368C144.421 25.2268 144.492 26.5188 144.567 27.2381H139.999C139.883 26.5605 139.823 25.8744 139.821 25.1868C139.026 26.5899 137.232 27.6689 134.857 27.6689C129.822 27.6689 126.23 23.7127 126.23 18.3447C126.23 13.1676 129.715 9.10494 134.715 9.10494C137.77 9.10494 139.209 10.3615 139.71 11.2983V1.20607H144.421V24.0368ZM135.434 23.3931C137.877 23.3931 139.786 21.5193 139.786 18.3225C139.786 15.1257 137.877 13.3941 135.434 13.3941C132.992 13.3941 131.047 15.1923 131.047 18.358C131.047 21.5238 132.917 23.3931 135.434 23.3931ZM158.074 16.9905L165.302 27.2381H159.442L154.766 20.4804L152.791 22.5628V27.2381H148.009V1.20607H152.791V16.138L158.9 9.5578H165.16L158.074 16.9905ZM169.551 0.775391C170.134 0.775433 170.701 0.947488 171.186 1.26989C171.67 1.59231 172.048 2.05067 172.272 2.58731C172.496 3.12397 172.556 3.71491 172.446 4.28582C172.335 4.85673 172.058 5.38207 171.648 5.79576C171.24 6.20945 170.718 6.49301 170.148 6.61075C169.579 6.72848 168.987 6.67514 168.448 6.45743C167.909 6.23973 167.445 5.86739 167.118 5.38726C166.789 4.90713 166.61 4.34065 166.604 3.75911C166.598 3.36897 166.671 2.98177 166.818 2.61997C166.964 2.25817 167.18 1.92896 167.454 1.65142C167.729 1.37389 168.055 1.15353 168.415 1.00316C168.775 0.852782 169.162 0.775362 169.551 0.775391ZM167.181 27.2381V9.54898H171.962V27.2381H167.181ZM174.658 9.54898C176.527 9.54898 177.393 8.32349 177.393 6.74283V4.26084H181.704V9.54898H185.256V13.7892H181.704V21.1997C181.704 22.7448 182.423 23.2465 183.791 23.2465C184.286 23.2513 184.78 23.2037 185.265 23.1044V27.0606C184.404 27.3815 183.489 27.5322 182.57 27.5045C179.116 27.5045 176.957 25.4532 176.957 22.0388V13.7892H174.658M203.745 22.1676C202.857 25.2268 200.041 27.7754 195.69 27.7754C190.837 27.7754 186.557 24.29 186.557 18.3225C186.557 12.6748 190.731 8.99838 195.26 8.99838C200.725 8.99838 203.998 12.4883 203.998 18.1671C203.998 18.8508 203.927 19.5702 203.927 19.6412H191.268C191.379 21.9811 193.354 23.6684 195.73 23.6684C197.95 23.6684 199.18 22.5539 199.753 20.9732L203.745 22.1676ZM199.304 16.3956C199.233 14.6195 198.083 12.9101 195.349 12.9101C194.369 12.8744 193.413 13.216 192.678 13.8645C191.942 14.513 191.483 15.419 191.397 16.3956H199.304Z" fill="white"/>
</g>
<defs>
<clipPath id="clip0_121_174">
<rect width="204.273" height="36" fill="white" transform="translate(0 0.185059)"/>
</clipPath>
</defs>
</svg>
