<svg width="99" height="30" viewBox="0 0 99 30" fill="none" xmlns="http://www.w3.org/2000/svg">
<path d="M79.5757 24.9541H19.79L24.5586 29.7227L79.5757 24.9541ZM89.1728 21.9141V12.3769C89.1728 10.5888 90.4243 9.09859 92.2124 9.09859C94.0012 9.09859 95.2527 10.5888 95.2527 12.3769V21.9141H98.9481V12.3769C98.9481 8.4429 96.2656 5.28373 92.3316 5.28373C90.5435 5.28373 89.1728 6.29705 89.1728 6.29705V5.64137H85.4774V21.8545H89.1728V21.9141ZM76.9535 5.22412C72.6615 5.22412 69.6216 8.9794 69.6216 13.748C69.6216 18.7549 73.4365 22.2717 77.3113 22.2717C79.2782 22.2717 81.7215 21.616 83.8078 18.6358L80.5297 16.7283C78.0261 20.4239 73.7939 18.5761 73.3172 14.8209H83.927C84.8811 9.09859 81.126 5.22412 76.9535 5.22412ZM80.1719 11.6617H73.5554C74.3306 7.90647 79.4564 7.66803 80.1719 11.6617Z" fill="white"/>
<path d="M68.4295 18.0399C68.0719 18.2784 67.6546 18.4572 67.1777 18.4572C66.5817 18.4572 65.4491 17.9804 65.4491 16.4902V9.51613H68.6083V5.64166H65.4491V1.58838H61.7535V5.64166H59.7864V9.51613H61.7535V16.4902C61.7535 20.1262 64.4954 22.272 67.2374 22.272C68.2507 22.272 69.6812 21.9144 70.8138 21.2587L68.4295 18.0399ZM54.8391 5.64166V15.1788C54.8391 16.9671 53.5873 18.4572 51.7991 18.4572C50.0108 18.4572 48.7591 16.9671 48.7591 15.1788V5.64166H45.0635V15.1788C45.0635 19.1129 47.7458 22.272 51.6799 22.272C53.4681 22.272 54.8391 21.2587 54.8391 21.2587V21.8548H58.5347V5.64166H54.8391Z" fill="white"/>
<path d="M38.1484 13.2712L44.4668 5.6415H39.3406L34.87 11.3042V0.276855H31.1148V21.9142H34.87V15.2383L40.3539 21.9142H45.4801L38.1484 13.2712ZM25.3329 5.6415V6.35678C24.2004 5.6415 23.2467 5.22425 21.8757 5.22425C17.7032 5.22425 14.4844 9.03908 14.4844 13.7481C14.4844 18.4571 17.6436 22.2719 21.8757 22.2719C23.2467 22.2719 24.26 21.8546 25.3329 21.1394V21.8546H29.0285V5.6415H25.3329ZM21.816 18.3974C19.7298 18.3974 18.2397 16.3707 18.2397 13.8077C18.2397 11.2446 19.7298 9.21789 21.816 9.21789C23.9024 9.21789 25.3329 11.2446 25.3329 13.8077C25.3925 16.3707 23.9024 18.3974 21.816 18.3974Z" fill="white"/>
<path d="M3.87446 21.9144V15.596H6.55679L11.2658 21.8548H16.0939L10.3716 14.2847C12.1599 13.0329 13.2924 10.9467 13.2924 8.56245C13.2924 4.68795 10.1332 1.58838 6.31836 1.58838H0V21.8548H3.87446V21.9144ZM3.87446 5.46284H6.37796C8.10657 5.46284 9.53713 6.89342 9.53713 8.622C9.53713 10.3506 8.10657 11.7812 6.37796 11.7812H3.87446V5.46284Z" fill="white"/>
</svg>
