<svg width="114" height="34" viewBox="0 0 114 34" fill="none" xmlns="http://www.w3.org/2000/svg">
<g clip-path="url(#clip0_121_206)">
<path d="M0.59082 6.67871H4.52806V15.4262H12.832V6.67871H16.7743V28.1509H12.832V19.2198H4.52806V28.1509H0.59082V6.67871ZM29.2474 21.1571C29.2474 22.9546 27.783 24.4173 25.9859 24.4173C24.1883 24.4173 22.7247 22.9546 22.7247 21.1571V11.9126H18.9908V21.1571C18.9908 25.0138 22.129 28.1509 25.9859 28.1509C29.842 28.1509 32.98 25.0138 32.98 21.1571V11.9126H29.2474V21.1571ZM43.4036 12.0209C41.5514 12.0209 40.2586 12.5583 39.0101 13.7839V6.67871H35.264V19.8466C35.264 24.7755 38.8276 28.1509 42.8313 28.1509C47.2822 28.1509 51.1819 24.7153 51.1819 20.0861C51.1819 15.5157 47.5859 12.0209 43.4036 12.0209ZM43.4967 24.6854C40.9583 24.6854 39.0173 22.5655 39.0173 20.0861C39.0173 17.6063 40.9583 15.4857 43.4967 15.4857C45.6475 15.4857 47.5896 17.6063 47.5896 20.0861C47.5896 22.5655 45.6475 24.6854 43.4967 24.6854ZM57.4734 12.9646C57.4734 11.0815 58.7282 10.4845 60.1021 10.4845C61.2075 10.4845 62.6712 11.3209 63.6261 12.3367L66.075 9.46934C64.8511 7.82665 62.3724 6.69128 60.3408 6.69128C56.2782 6.69128 53.3508 9.05117 53.3508 12.9646C53.3508 20.2228 62.2825 17.9221 62.2825 21.9855C62.2825 23.2387 61.0581 24.3449 59.655 24.3449C57.4437 24.3449 56.7264 23.2695 55.7114 22.1341L52.9926 24.9415C54.7261 27.0625 56.8758 28.1383 59.4455 28.1383C63.298 28.1383 66.4047 25.7487 66.4047 22.0144C66.4047 13.9498 57.4734 16.4592 57.4734 12.9646ZM76.2665 11.8104C72.2635 11.8104 68.6992 15.184 68.6992 20.1139V33.3158H72.4448V26.1768C73.6936 27.4015 74.9858 27.9399 76.8388 27.9399C81.021 27.9399 84.6172 24.4455 84.6172 19.8751C84.6172 15.2453 80.7167 11.8104 76.2665 11.8104ZM76.932 24.4755C74.3943 24.4755 72.4526 22.3527 72.4526 19.8751C72.4526 17.3952 74.3943 15.2746 76.932 15.2746C79.0826 15.2746 81.0249 17.3952 81.0249 19.8751C81.0249 22.3527 79.0826 24.4755 76.932 24.4755ZM112.191 24.6854C109.981 24.6854 109.354 23.7301 109.354 22.2658V15.7843H112.788V12.499H109.354V8.16742L105.562 9.86965V23.0723C105.562 26.4481 107.891 28.1509 111.085 28.1509C111.563 28.1509 112.221 28.12 112.58 28.0316L113.506 24.6268C113.088 24.6557 112.61 24.6854 112.191 24.6854Z" fill="white"/>
<path d="M102.312 15.975C101.594 14.7394 100.584 13.7489 99.3206 13.0033C98.3773 12.4539 97.3987 12.1052 96.2956 11.9555V8.02967C97.3987 7.56144 98.0829 6.52509 98.0829 5.31602C98.0829 3.66808 96.7614 2.33266 95.1147 2.33266C93.4668 2.33266 92.1221 3.66808 92.1221 5.31602C92.1221 6.52509 92.7672 7.56144 93.8698 8.02967V11.9572C92.9877 12.0847 92.0725 12.3597 91.2373 12.7823C89.531 11.4863 83.9357 7.23479 80.6626 4.75164C80.7398 4.47176 80.7999 4.18328 80.7999 3.87892C80.7999 2.05366 79.3218 0.574219 77.4958 0.574219C75.6699 0.574219 74.1924 2.05366 74.1924 3.87892C74.1924 5.70396 75.6715 7.18385 77.4975 7.18385C78.1199 7.18385 78.696 7.0017 79.1933 6.70217L79.8841 7.22619L89.3755 14.065C88.8738 14.5257 88.4063 15.0497 88.0325 15.6377C87.275 16.8364 86.8119 18.1553 86.8119 19.5939V19.8941C86.8119 20.904 87.0043 21.8574 87.3307 22.7531C87.6185 23.5351 88.0397 24.2462 88.5607 24.8891L85.4105 28.0469C84.954 27.877 84.4584 27.8422 83.9826 27.9465C83.5068 28.0508 83.0707 28.29 82.7272 28.6353C82.4896 28.872 82.3011 29.1536 82.1726 29.4636C82.0447 29.7737 81.9791 30.1061 81.9802 30.4416C81.9802 31.1238 82.2459 31.765 82.7289 32.2473C82.9654 32.4853 83.2466 32.674 83.5564 32.8025C83.8668 32.931 84.1992 32.9967 84.5344 32.9958C84.8702 32.9967 85.2026 32.931 85.513 32.8025C85.8228 32.674 86.1046 32.4853 86.3411 32.2473C86.5787 32.0106 86.7673 31.7292 86.8957 31.4193C87.0236 31.1093 87.0898 30.7771 87.0887 30.4416C87.0887 30.1776 87.0479 29.92 86.9712 29.6752L90.2273 26.4188C90.6733 26.7271 91.1557 26.9867 91.6739 27.2106C92.6961 27.6526 93.8246 27.9219 95.0595 27.9219H95.2856C96.6506 27.9219 97.9385 27.6012 99.1492 26.9453C100.425 26.2521 101.423 25.3042 102.178 24.094C102.936 22.8806 103.353 21.5398 103.353 20.0648V19.9911C103.353 18.5401 103.018 17.2014 102.312 15.975ZM98.3338 22.806C97.45 23.7881 96.4339 24.3931 95.2856 24.3931H95.0965C94.4404 24.3931 93.7987 24.2118 93.1707 23.8821C92.4628 23.519 91.9248 23.0012 91.4843 22.3455C91.0289 21.7019 90.7819 20.9993 90.7819 20.2542V20.028C90.7819 19.2956 90.9225 18.601 91.277 17.9451C91.6552 17.2281 92.1668 16.6705 92.8471 16.2272C93.5148 15.787 94.2281 15.5711 95.0226 15.5711H95.0965C95.8165 15.5711 96.4984 15.7131 97.1424 16.0424C97.7979 16.3936 98.3338 16.8733 98.7489 17.5042C99.1525 18.1354 99.3923 18.8163 99.4695 19.558C99.4816 19.7121 99.4877 19.8701 99.4877 20.0209C99.4877 21.0275 99.1034 21.9598 98.3338 22.806Z" fill="white"/>
</g>
<defs>
<clipPath id="clip0_121_206">
<rect width="113.57" height="33.63" fill="white" transform="translate(0.429688 0.185059)"/>
</clipPath>
</defs>
</svg>
