<svg width="95" height="37" viewBox="0 0 95 37" fill="none" xmlns="http://www.w3.org/2000/svg">
<g clip-path="url(#clip0_121_183)">
<path d="M1.29199 9.47223H8.04202C12.3505 9.47223 15.0792 12.9191 15.0792 17.6585C15.0792 20.2436 14.2175 22.5414 12.4941 23.9776C11.3452 24.9829 9.76534 25.5574 7.75475 25.5574H1.29199V9.47223ZM7.53933 22.7569C10.6271 22.7569 11.776 20.8899 11.776 17.7303C11.776 14.5707 10.4117 12.3446 7.61114 12.3446H4.52338V22.8287H7.53933V22.7569ZM15.5819 19.8128C15.5819 16.3659 18.0234 13.709 21.6138 13.709C25.2042 13.709 27.6457 16.3659 27.6457 19.8128C27.6457 23.2595 25.2042 25.9164 21.6138 25.9164C18.0234 25.9164 15.5819 23.1877 15.5819 19.8128ZM24.4861 19.8128C24.4861 17.5866 23.409 16.0068 21.542 16.0068C19.6749 16.0068 18.5979 17.5149 18.5979 19.8128C18.5979 22.1106 19.6032 23.5468 21.542 23.5468C23.4808 23.5468 24.4861 22.0388 24.4861 19.8128ZM28.2201 19.8128C28.2201 16.3659 30.4463 13.709 33.9648 13.709C36.9808 13.709 38.776 15.4324 39.2069 17.9457H36.1909C35.9755 16.9404 35.1856 16.1505 34.1085 16.1505C32.2415 16.1505 31.308 17.5866 31.308 19.8128C31.308 21.967 32.1696 23.475 34.0367 23.475C35.2574 23.475 36.1191 22.8287 36.3345 21.5361H39.3504C39.135 23.9776 37.2681 25.9164 34.1803 25.9164C30.5181 25.8447 28.2201 23.1877 28.2201 19.8128ZM47.3931 25.5574V24.193H47.3212C46.5313 25.2702 45.6696 25.8447 44.018 25.8447C41.433 25.8447 39.9968 24.193 39.9968 21.6798V13.9962H43.0127V21.1771C43.0127 22.5414 43.5872 23.2595 44.9515 23.2595C46.3877 23.2595 47.2494 22.1824 47.2494 20.6744V13.9962H50.3372V25.4856H47.3931V25.5574ZM65.2015 9.54408H68.2893V12.4164H65.2015V9.54408ZM65.2015 13.9962H68.2893V25.4856H65.2015V13.9962ZM69.51 25.8447H72.526C72.7411 26.5627 73.4596 27.1372 74.8241 27.1372C76.5471 27.1372 77.4089 26.2755 77.4089 24.7675V23.475H77.3369C76.6911 24.2648 75.7577 24.8393 74.3213 24.8393C71.7363 24.8393 69.2229 22.8287 69.2229 19.3101C69.2229 15.8632 71.3055 13.709 74.1774 13.709C75.6138 13.709 76.6911 14.2835 77.3369 15.217H77.4089V13.9962H80.3534V24.6239C80.3534 26.2755 79.8501 27.3526 78.9884 28.1425C78.0546 29.076 76.5471 29.4351 74.8241 29.4351C71.8082 29.4351 69.8691 28.1425 69.51 25.8447ZM77.6241 19.2383C77.6241 17.5866 76.6904 16.1505 74.896 16.1505C73.3158 16.1505 72.3102 17.3712 72.3102 19.3101C72.3102 21.2489 73.3158 22.3978 74.896 22.3978C76.8344 22.3978 77.6241 20.9616 77.6241 19.2383ZM84.7334 15.576C85.5951 14.3553 86.6721 13.709 88.1796 13.709C90.5496 13.709 92.1291 15.5042 92.1291 18.0175V25.5574H89.0414V18.5202C89.0414 17.2995 88.3236 16.4377 87.0314 16.4377C85.6671 16.4377 84.6614 17.5149 84.6614 19.0947V25.6292H81.7176V14.1398H84.7334V15.576ZM58.2361 15.8632C55.8664 15.3606 54.7893 14.9297 54.7893 13.6372C54.7893 12.4883 55.9382 11.7702 57.6616 11.7702C59.2414 11.7702 60.4622 12.4883 60.7494 13.9962H63.909C63.55 10.9085 61.2521 9.18506 57.6616 9.18506C54.0712 9.18506 51.4861 10.8366 51.4861 13.9962C51.4861 17.3712 54.143 18.0894 57.0154 18.7356C59.4568 19.3101 60.9648 19.5972 60.9648 21.1771C60.9648 22.6851 59.5287 23.2595 57.877 23.2595C55.5792 23.2595 54.5021 22.4696 54.2867 20.5308H51.1271C51.2707 23.9058 53.7122 25.8447 58.0926 25.8447C61.683 25.8447 64.3398 24.0494 64.3398 20.7462C64.268 17.3712 61.5393 16.5813 58.2361 15.8632ZM93.4221 16.1505C92.7764 16.1505 92.2011 15.576 92.2011 14.9297C92.2011 14.2835 92.7764 13.709 93.4221 13.709C94.0686 13.709 94.6431 14.2835 94.6431 14.9297C94.6431 15.576 94.0686 16.1505 93.4221 16.1505ZM93.4221 13.9244C92.8476 13.9244 92.4171 14.3553 92.4171 14.9297C92.4171 15.5042 92.8476 15.9351 93.4221 15.9351C93.9966 15.9351 94.4271 15.5042 94.4271 14.9297C94.4271 14.3553 93.9966 13.9244 93.4221 13.9244Z" fill="white"/>
<path d="M92.9917 14.2837H93.4229C93.5662 14.2837 93.7095 14.2837 93.7815 14.3555C93.8535 14.4272 93.9254 14.4992 93.9254 14.6427C93.9254 14.8582 93.7814 14.93 93.7094 15.0017L93.9974 15.5045H93.7094L93.4942 15.0736H93.2077V15.5045H92.9917V14.2837ZM93.2077 14.4992V14.8582H93.4229C93.4949 14.8582 93.6382 14.8582 93.6382 14.6427C93.6382 14.6427 93.6382 14.4992 93.5662 14.4992H93.2077Z" fill="white"/>
</g>
<defs>
<clipPath id="clip0_121_183">
<rect width="93.75" height="36" fill="white" transform="translate(0.941406 0.185059)"/>
</clipPath>
</defs>
</svg>
