<svg width="135" height="37" viewBox="0 0 135 37" fill="none" xmlns="http://www.w3.org/2000/svg">
<g clip-path="url(#clip0_121_181)">
<path d="M49.3398 27.13H52.4036L51.8839 24.7499V10.6068H48.9568V17.0629C48.0814 16.0507 46.8503 15.4489 45.4278 15.4489C42.5007 15.4489 40.2301 17.8836 40.2301 21.4125C40.2301 24.9688 42.5007 27.3762 45.4278 27.3762C46.8777 27.3762 48.1361 26.747 49.0115 25.6801L49.3398 27.13ZM107.225 18.6222C107.827 18.6222 108.375 18.7863 108.867 19.142L110.262 16.0234C109.606 15.613 108.867 15.4489 108.128 15.4489C106.815 15.4489 105.694 16.0507 105.01 17.1723L104.709 15.7225H101.699L102.192 17.9656V27.1573H105.119V19.8532C105.502 19.0872 106.24 18.6222 107.225 18.6222ZM115.788 24.3123C114.092 24.3123 112.834 23.1907 112.834 21.4399C112.834 19.6617 114.092 18.5675 115.788 18.5675C117.512 18.5675 118.743 19.6617 118.743 21.4399C118.743 23.1633 117.512 24.3123 115.788 24.3123ZM43.0752 21.4125C43.0752 19.6344 44.3336 18.5401 46.0296 18.5401C47.7531 18.5401 48.9841 19.6344 48.9841 21.4125C48.9841 23.1633 47.7531 24.2849 46.0296 24.2849C44.3336 24.3123 43.0752 23.1633 43.0752 21.4125ZM128.782 24.3123C127.086 24.3123 125.828 23.1907 125.828 21.4399C125.828 19.6617 127.086 18.5675 128.782 18.5675C130.506 18.5675 131.737 19.6617 131.737 21.4399C131.71 23.1633 130.478 24.3123 128.782 24.3123ZM59.5163 18.376C61.0209 18.376 62.0057 19.0872 62.334 20.4003H56.6985C56.9995 19.0599 58.0117 18.376 59.5163 18.376ZM94.5049 18.376C96.0097 18.376 96.994 19.0872 97.3223 20.4003H91.6874C92.0431 19.0599 93.0274 18.376 94.5049 18.376ZM80.2248 27.13H84.9301L87.9937 15.6677H84.7933L82.5778 24.9688L80.3342 15.6951H77.1885L80.2248 27.13ZM72.702 27.13H75.6289V15.6677H72.702V27.13ZM59.9539 27.3488C61.5954 27.3488 63.182 26.8838 64.5225 26.0358L63.4009 23.5189C62.3613 24.0934 61.1577 24.3943 59.9813 24.3943C58.4494 24.3943 57.3825 23.7925 56.8901 22.6709H65.1517C65.2338 22.2332 65.2884 21.8502 65.2884 21.3304C65.2884 17.7741 62.8264 15.4215 59.571 15.4215C56.2608 15.4215 53.8535 17.8289 53.8535 21.3852C53.8262 25.0236 56.2336 27.3488 59.9539 27.3488ZM134.554 21.4125C134.554 17.8562 132.093 15.4489 128.782 15.4489C125.445 15.4489 123.01 17.8836 123.01 21.4125C123.01 24.9415 125.472 27.3762 128.782 27.3762C132.093 27.3762 134.554 24.9688 134.554 21.4125ZM94.9153 27.3762C96.5569 27.3762 98.1431 26.9385 99.4838 26.0631L98.362 23.5463C97.3223 24.1208 96.1191 24.4217 94.9426 24.4217C93.4104 24.4217 92.3441 23.8199 91.8516 22.6983H100.113C100.195 22.2606 100.25 21.8776 100.25 21.3578C100.25 17.8015 97.7874 15.4489 94.5322 15.4489C91.2223 15.4489 88.8146 17.8562 88.8146 21.4125C88.8146 25.0783 91.1949 27.3762 94.9153 27.3762ZM115.788 27.3762C119.126 27.3762 121.56 24.9415 121.56 21.4125C121.56 17.8836 119.098 15.4489 115.788 15.4489C112.451 15.4489 110.016 17.8836 110.016 21.4125C110.016 24.9415 112.451 27.3762 115.788 27.3762ZM67.1486 27.13H70.0758V10.6068H67.1486V27.13ZM74.1795 14.1084C75.1911 14.1084 76.012 13.2877 76.012 12.2482C76.012 11.2087 75.2185 10.3879 74.1795 10.3879C73.1398 10.3879 72.319 11.2087 72.319 12.2482C72.319 13.2877 73.1125 14.1084 74.1795 14.1084ZM23.8711 0.184082L22.2024 16.0507L19.3574 2.6735L10.3845 4.56108L13.2022 17.9383L0.290039 20.6739L2.58796 31.3428L25.321 36.1849L30.5187 24.5585L32.9807 1.14155L23.8711 0.184082ZM16.6765 23.218C16.2114 23.6557 15.6095 23.601 14.9256 23.3822C14.2691 23.1633 13.9955 22.3974 14.2144 21.4125C14.4059 20.7012 15.2539 20.5919 15.719 20.5919C15.8831 20.5919 16.0472 20.6192 16.2114 20.7012C16.5123 20.838 17.0321 21.1389 17.1415 21.5766C17.3056 22.2332 17.1415 22.7803 16.6765 23.218ZM23.2693 23.9293C22.9137 24.5311 22.0383 24.6132 21.1355 24.1755C20.5336 23.8746 20.5336 23.1633 20.6157 22.6983C20.6431 22.4521 20.7525 22.2058 20.9166 22.0144C21.1355 21.7408 21.4911 21.3852 21.8741 21.3852C22.558 21.3578 23.1051 21.6587 23.4334 22.2058C23.7617 22.753 23.5975 23.3548 23.2693 23.9293Z" fill="white"/>
</g>
<defs>
<clipPath id="clip0_121_181">
<rect width="134.643" height="36" fill="white" transform="translate(0.290039 0.185059)"/>
</clipPath>
</defs>
</svg>
