<svg width="100" height="28" viewBox="0 0 100 28" fill="none" xmlns="http://www.w3.org/2000/svg">
<g clip-path="url(#clip0_121_194)">
<path d="M94.1664 13.3554L99.4825 27.4298C97.916 27.206 96.3501 26.9258 94.7553 26.6732L91.7604 18.8966L88.6837 26.0313C87.1729 25.7788 85.6895 25.6947 84.1787 25.4986L89.5788 13.1881L84.681 0.570312H89.2142L91.9558 7.62005L94.8943 0.570312H99.4819L94.1664 13.3554ZM81.1019 0.570312H76.9884V24.9676C78.3321 25.0518 79.7301 25.1073 81.1019 25.2748V0.570312ZM73.4349 24.6875C69.6867 24.4359 65.9369 24.2129 62.1041 24.1279V0.570421H66.3005V20.1553C68.707 20.2109 71.1129 20.4061 73.4349 20.518V24.6875ZM57.6266 10.1117V14.308H51.8913V23.8485H47.7514V0.570312H59.5023V4.76665H51.8921V10.1118H57.6274L57.6266 10.1117ZM40.6998 4.76665V24.0723C39.3004 24.0723 37.8743 24.0723 36.5026 24.1279V4.76665H32.1657V0.570312H45.0635V4.76665H40.6998ZM27.6337 14.531C25.7875 14.531 23.6047 14.531 22.0379 14.6161V20.8546C24.5 20.6862 26.9621 20.491 29.4519 20.407V24.4359L17.8415 25.3598V0.570312H29.4511V4.76665H22.0378V10.4187C23.661 10.4187 26.1509 10.3347 27.6335 10.3347V14.5319L27.6337 14.531ZM4.38221 12.1808V26.8416C2.87271 27.0098 1.52881 27.2059 0.102539 27.4298V0.570312H4.10377L9.55902 15.8194V0.570312H13.7562V25.6947C12.2736 25.9472 10.7623 26.0313 9.16774 26.2543L4.38221 12.1808Z" fill="white"/>
</g>
<defs>
<clipPath id="clip0_121_194">
<rect width="99.38" height="26.8595" fill="white" transform="translate(0.102539 0.570312)"/>
</clipPath>
</defs>
</svg>
