<svg width="97" height="37" viewBox="0 0 97 37" fill="none" xmlns="http://www.w3.org/2000/svg">
<g clip-path="url(#clip0_121_186)">
<path d="M21.0989 9.14802H16.9321C16.5247 9.14802 16.0617 9.4628 15.8952 9.85169L11.5988 21.3147C11.4507 21.7036 11.2099 21.7036 11.0433 21.3147L6.74697 9.85169C6.59882 9.4628 6.13586 9.14802 5.70992 9.14802H1.56178C1.13585 9.14802 0.932148 9.4628 1.0803 9.85169L8.20993 27.648C8.35807 28.0369 8.63585 28.3517 9.06177 28.3517H13.6173C14.0248 28.3517 14.3025 28.0369 14.4692 27.648L21.5988 9.85169C21.7284 9.4628 21.5247 9.14802 21.0989 9.14802ZM20.284 32.2035H2.59881C2.30252 32.2035 2.06178 32.4443 2.06178 32.7406V33.648C2.06178 33.9443 2.30252 34.1851 2.59881 34.1851H20.2655C20.5617 34.1851 20.8025 33.9443 20.8025 33.648V32.7406C20.8025 32.4443 20.5617 32.2035 20.284 32.2035ZM62.8396 9.14802H58.6543C58.2285 9.14802 57.8951 9.48134 57.8951 9.90731V27.6109C57.8951 28.0369 58.2285 28.3703 58.6543 28.3703H62.8396C63.2469 28.3703 63.5988 28.0369 63.5988 27.6109V9.90731C63.5988 9.48134 63.2655 9.14802 62.8396 9.14802ZM72.6358 1.70357H68.4507C68.0432 1.70357 67.6914 2.03691 67.6914 2.46283V27.6109C67.6914 28.0369 68.0248 28.3703 68.4507 28.3703H72.6358C73.0433 28.3703 73.3952 28.0369 73.3952 27.6109V2.46283C73.3766 2.05543 73.0433 1.70357 72.6358 1.70357ZM60.747 0.185059C58.9877 0.185059 57.5433 1.6295 57.5433 3.38876C57.5433 5.14802 58.9877 6.59246 60.747 6.59246C62.5062 6.59246 63.9507 5.14802 63.9507 3.38876C63.9507 1.6295 62.5248 0.185059 60.747 0.185059ZM31.2654 8.87025C30.0618 8.87025 28.8951 9.11098 27.8025 9.57395C26.6914 10.0369 25.7099 10.7035 24.8581 11.5739C23.9877 12.4629 23.284 13.4998 22.821 14.685C22.3211 15.9258 22.0618 17.2961 22.0618 18.7406C22.0618 20.2591 22.3211 21.6851 22.8396 22.9628C23.3396 24.1665 24.0433 25.2221 24.9692 26.111C26.7285 27.8147 29.1359 28.7406 31.7285 28.7406C35.1174 28.7406 37.9506 27.2406 39.4878 24.611C39.4878 24.611 39.5062 24.574 39.5433 24.5184C39.5803 24.4628 39.3025 24.2776 38.9506 24.0925L35.9877 22.611C35.6358 22.4258 35.321 22.3147 35.284 22.3702L35.2284 22.4443C34.4877 23.5369 33.321 24.0925 31.7469 24.0925C29.6914 24.0925 27.9137 22.7962 27.4507 20.9258C27.4507 20.9258 27.4136 20.7961 27.3766 20.6295C27.3396 20.4629 27.6174 20.3332 28.0247 20.3332H39.8025C40.2099 20.3332 40.5247 20.0184 40.5247 19.611V18.5925C40.5247 15.648 39.6729 13.185 38.0618 11.4813C36.4507 9.77762 34.0988 8.87025 31.2654 8.87025ZM34.5432 16.5183H28.1173C27.7099 16.5183 27.4507 16.3702 27.5062 16.2036L27.6174 15.8888C27.8025 15.3518 28.1173 14.8332 28.5248 14.4258C29.0247 13.9073 29.9322 13.3147 31.358 13.3147C32.6173 13.3147 33.5988 13.6665 34.3025 14.3702C34.7099 14.7777 34.9878 15.3147 35.1543 15.9258C35.1543 15.9258 35.1914 16.0554 35.2284 16.2221C35.247 16.3887 34.9507 16.5183 34.5432 16.5183ZM96.1729 9.14802H92.0059C91.5991 9.14802 91.1356 9.4628 90.9691 9.85169L86.6729 21.3147C86.5247 21.7036 86.284 21.7036 86.1174 21.3147L81.8211 9.85169C81.6729 9.4628 81.21 9.14802 80.784 9.14802H76.6359C76.2285 9.14802 76.0062 9.4628 76.1544 9.85169L82.747 26.7221C83.2099 27.9628 83.5062 28.7776 83.5062 28.8888C83.5062 29.4443 83.247 29.9628 82.8951 30.4629C82.5433 30.9628 82.0988 31.2036 81.5988 31.2036C80.8396 31.2036 80.1174 30.9258 79.3951 30.3888C79.0617 30.1295 78.6914 30.2221 78.5433 30.5925L77.3211 33.7591C77.1729 34.148 77.3211 34.6666 77.6544 34.9072C78.9507 35.7592 80.3025 36.1851 81.7099 36.1851C83.0803 36.1851 84.3211 35.8147 85.4321 35.0925C86.5433 34.3518 87.5063 33.3332 88.0433 32.0184L89.1914 29.074C89.3396 28.6851 89.5803 28.0554 89.747 27.6666C90.9322 24.6665 95.5249 12.8703 96.6913 9.87023C96.8029 9.4628 96.5986 9.14802 96.1729 9.14802ZM54.21 8.88876C53.3766 8.99987 52.5432 9.25913 51.7285 9.6851C50.9136 10.111 50.2099 10.611 49.6173 11.185C49.3581 11.4443 49.1544 11.3703 49.1544 10.9999V9.8147C49.1544 9.44435 48.8581 9.14802 48.4878 9.14802H44.1359C43.7655 9.14802 43.4692 9.44435 43.4692 9.8147V27.6851C43.4692 28.0554 43.7655 28.3517 44.1359 28.3517H48.4878C48.8581 28.3517 49.1544 28.0554 49.1544 27.6851V20.074C49.1544 18.2221 49.5433 16.7406 50.3211 15.611C51.0988 14.4814 52.284 13.9258 53.8766 13.9258H54.3951C54.6729 13.9258 54.9137 13.6295 54.9137 13.2591L54.8951 9.49988C54.8766 9.1295 54.5803 8.8332 54.21 8.88876Z" fill="white"/>
</g>
<defs>
<clipPath id="clip0_121_186">
<rect width="96.3" height="36" fill="white" transform="translate(0.700195 0.185059)"/>
</clipPath>
</defs>
</svg>
