<svg width="17" height="16" viewBox="0 0 17 16" fill="none" xmlns="http://www.w3.org/2000/svg">
<path d="M13.3701 9.95302C13.1526 10.1644 13.0526 10.47 13.1022 10.7698L13.8488 14.9127C13.9118 15.2638 13.764 15.6192 13.4709 15.8221C13.1837 16.0326 12.8015 16.0579 12.4882 15.8895L8.76835 13.9443C8.63901 13.8753 8.49539 13.8382 8.34841 13.834H8.1208C8.04185 13.8458 7.96458 13.8711 7.89403 13.9098L4.17331 15.8642C3.98938 15.9568 3.78108 15.9897 3.57699 15.9568C3.07977 15.8625 2.74802 15.3876 2.82949 14.8866L3.57699 10.7437C3.62654 10.4414 3.5266 10.1341 3.30906 9.91934L0.27622 6.97217C0.0225727 6.72545 -0.0656158 6.35494 0.0502891 6.02065C0.162834 5.6872 0.450077 5.44385 0.796952 5.38911L4.97121 4.782C5.28869 4.74916 5.56753 4.55549 5.71031 4.26919L7.54967 0.488388C7.59334 0.404184 7.64962 0.326715 7.71765 0.261035L7.79324 0.202092C7.83271 0.158305 7.87807 0.122097 7.92846 0.0926254L8.02001 0.0589434L8.16279 0H8.51638C8.83218 0.0328399 9.11019 0.222301 9.25549 0.505229L11.1192 4.26919C11.2536 4.54454 11.5148 4.73568 11.8163 4.782L15.9906 5.38911C16.3433 5.43964 16.6381 5.68383 16.7549 6.02065C16.8649 6.35831 16.77 6.72881 16.5113 6.97217L13.3701 9.95302Z" fill="#FEC034"/>
</svg>
