<svg width="44" height="44" viewBox="0 0 44 44" fill="none" xmlns="http://www.w3.org/2000/svg">
<circle cx="22" cy="22" r="21.5" fill="#198A96" stroke="#198A96"/>
<g clip-path="url(#clip0_136_689)">
<path d="M29.3327 17.4518C28.7873 17.691 28.2061 17.8496 27.6002 17.9266C28.2235 17.5544 28.6993 16.9696 28.9229 16.2647C28.3418 16.6112 27.7001 16.8559 27.0163 16.9925C26.4644 16.4049 25.6779 16.041 24.8199 16.041C23.1553 16.041 21.8151 17.3922 21.8151 19.0486C21.8151 19.2869 21.8353 19.5161 21.8848 19.7343C19.385 19.6123 17.1731 18.4143 15.6872 16.5892C15.4278 17.0393 15.2756 17.5544 15.2756 18.109C15.2756 19.1503 15.8118 20.0734 16.6112 20.6078C16.1281 20.5987 15.6542 20.4584 15.2527 20.2375C15.2527 20.2467 15.2527 20.2586 15.2527 20.2705C15.2527 21.7317 16.2949 22.9453 17.6617 23.2249C17.4169 23.2918 17.1502 23.3239 16.8733 23.3239C16.6808 23.3239 16.4865 23.3129 16.3041 23.2726C16.6937 24.4633 17.7992 25.3388 19.1137 25.3672C18.0907 26.1674 16.7918 26.6496 15.3856 26.6496C15.139 26.6496 14.9025 26.6386 14.666 26.6083C15.9979 27.4673 17.5764 27.9577 19.2787 27.9577C24.8117 27.9577 27.8367 23.3743 27.8367 19.4015C27.8367 19.2686 27.8321 19.1403 27.8257 19.0128C28.4224 18.5893 28.9238 18.0604 29.3327 17.4518Z" fill="white"/>
</g>
<defs>
<clipPath id="clip0_136_689">
<rect width="14.6667" height="14.6667" fill="white" transform="translate(14.666 14.666)"/>
</clipPath>
</defs>
</svg>
