<svg width="44" height="44" viewBox="0 0 44 44" fill="none" xmlns="http://www.w3.org/2000/svg">
<circle cx="22" cy="22" r="21.5" fill="#198A96" stroke="#198A96"/>
<g clip-path="url(#clip0_136_681)">
<path d="M28.7093 17.9287C28.3115 17.221 27.8798 17.0909 27.0007 17.0414C26.1225 16.9818 23.9143 16.957 22.0012 16.957C20.0844 16.957 17.8753 16.9818 16.998 17.0404C16.1208 17.0909 15.6881 17.2201 15.2866 17.9287C14.8768 18.6354 14.666 19.8528 14.666 21.9959C14.666 21.9978 14.666 21.9987 14.666 21.9987C14.666 22.0005 14.666 22.0014 14.666 22.0014V22.0033C14.666 24.1373 14.8768 25.3638 15.2866 26.0632C15.6881 26.7709 16.1198 26.8992 16.9971 26.9588C17.8753 27.0101 20.0844 27.0404 22.0012 27.0404C23.9143 27.0404 26.1225 27.0101 27.0016 26.9597C27.8807 26.9001 28.3124 26.7718 28.7103 26.0641C29.1237 25.3647 29.3327 24.1382 29.3327 22.0042C29.3327 22.0042 29.3327 22.0014 29.3327 21.9996C29.3327 21.9996 29.3327 21.9978 29.3327 21.9969C29.3327 19.8528 29.1237 18.6354 28.7093 17.9287ZM20.166 24.7487V19.2487L24.7493 21.9987L20.166 24.7487Z" fill="white"/>
</g>
<defs>
<clipPath id="clip0_136_681">
<rect width="14.6667" height="14.6667" fill="white" transform="translate(14.666 14.666)"/>
</clipPath>
</defs>
</svg>
